<?xml version="1.0" encoding="UTF-8"?>
<svg id="Layer_1" data-name="Layer 1" xmlns="http://www.w3.org/2000/svg" viewBox="0 0 146.82 146.82">
  <defs>
    <style>
      .cls-1 {
        fill: #3b2f71;
      }

      .cls-1, .cls-2 {
        stroke-width: 0px;
      }

      .cls-2 {
        fill: #941454;
      }
    </style>
  </defs>
  <circle class="cls-1" cx="73.41" cy="73.41" r="73.41"/>
  <path class="cls-2" d="M116.22,43.42c1.75-2.14,4.16-3.95,5.5-6.4h-8.93c-4.79-5.56-10.03-7.5-15.35-7.02-2.58.22-5.18,1.02-7.77,2.23-15.41,7.28-24.68,22.88-34.8,35.85-9.42,12.05-32.64,28.72-32.64,28.72l-2.53,1.84s4.2,11.9,21.7,21l29.32-40.54-9.08,5.5-.48-16.08v-.04c-.01-.42.01-.82.06-1.19.02-.18.05-.36.1-.51l.04-.19.05-.16.07-.24c.18-.48.43-.9.73-1.23h-.04c1.1-1.25,2.98-1.44,5.14-.28l27.76,14.94c1.46.78,2.31,1.8,2.57,2.87l.05.25.05.32c.02.23.01.45-.03.68-.18,1.13-.99,2.24-2.44,3.13l-25.06,14.9c1.15-.26,2.68-.46,3.69-.66,3.24-.63,6.47-1.38,9.65-2.28,6.14-1.74,12.53-3.98,17.83-7.61,7.21-4.93,12.3-12.66,14.32-21.13.64-2.67.94-5.47.94-8.22,0-2.92-.44-5.82-1.16-8.65-.87-3.38-1.67-6.85.74-9.8ZM98.44,45.21c-2.26,0-4.09-1.83-4.09-4.09s1.83-4.09,4.09-4.09,4.09,1.83,4.09,4.09-1.83,4.09-4.09,4.09Z"/>
</svg>