<?xml version="1.0" encoding="UTF-8"?>
<svg id="Layer_1" xmlns="http://www.w3.org/2000/svg" viewBox="0 0 1200 494">
  <defs>
    <style>
      .cls-1 {
        fill: #fff;
      }
    </style>
  </defs>
  <path d="M888.37,68.61c1.41-.94,2.7-2.32,4.25-2.75,12.49-3.45,25.03-6.75,37.56-10.03,7.12-1.86,10.04.11,11.7,7.23,1.54,6.63,3.35,13.21,5.14,19.78,2.36,8.66.87,10.76-7.78,12.98-15.58,3.98-31.07,8.36-47.39,12.8,3.2,12.22,6.37,24.31,9.47,36.16,8,1.56,15.07-7.49,23.46-.43.51-1.47,1.03-2.95,1.86-5.34,5.45-1.42,11.82-3.24,18.27-4.71,3.79-.86,6.63.97,7.69,4.63,2.5,8.62,4.87,17.3,7.02,26.02.97,3.94-.57,6.81-4.84,7.84-14.18,3.41-28.35,6.86-42.82,10.36.07,1.17-.06,2.33.23,3.38,3.07,11.41,6.26,22.8,9.28,34.22.69,2.59,1.39,4.27,4.66,3.38,31.62-8.62,63.27-17.15,94.91-25.72.46-.13.89-.4,2.03-.92-10.3-38.55-20.61-77.16-31.11-116.5-8.1,2.12-15.75,4.11-23.39,6.1-2.56.67-5.12,1.34-7.69,2-4.04,1.05-6.55-.87-7.61-4.51-2.47-8.46-4.7-16.98-6.99-25.49-.21-.79-.36-1.73-.13-2.47.55-1.79,1-3.81,2.18-5.1.5-.54,2.76.54,2.98.59,2.86-1.66,4.91-3.44,7.29-4.14,9.41-2.76,18.91-5.18,28.29-7.7.75,1.37,1.39,2.53,2.87,5.21.52-6.6,4.68-7.25,8.22-8.08,5.95-1.4,12.17-1.74,18.04-3.38,8.6-2.4,16.93-5.76,25.49-8.34,8.44-2.55,17.01-4.64,25.53-6.94,8.11-2.19,9.9-1.23,12.25,6.6q2.11,7.03-1.18,13.48c1.57-.14,2.9-.26,4.54-.41.98,3.55,2.13,7.03,2.88,10.59.89,4.22-1.36,6.87-7.12,8.54-7.79,2.26-15.58,4.56-23.47,6.47-3.61.87-4.34,2.13-3.33,5.8,6.37,23.23,12.41,46.55,18.65,69.82,6.41,23.91,12.84,47.82,19.46,71.68,1.21,4.35,2.75,8.39-1.18,12.09-.4.37-.66,1.09-1.09,1.2-4.78,1.23-9.54,2.6-14.38,3.47-8.16,1.48-8.19,1.34-14.48-1.25.94,1.75,1.57,2.91,2.43,4.51-6.44,1.95-12.79,4.22-19.31,5.78-9.8,2.35-19.59,4.53-28.97,8.46-3.26,1.36-7.35.77-11.06,1-1.05.06-2.87,1.58-4.48,2.04-2.28.64-4.87.16-7.08.68-1.24.31-2.49.59-3.72.94-.6.17-1.22.37-1.76.67-3.62,2.02-6.84,5.03-11.52,4.27-1.12-.18-2.39-.22-3.46.1-8.06,2.43-16.09,4.99-24.14,7.45-4.72,1.44-9.44,2.91-14.25,3.97-1,.22-2.39-1.33-3.69-2.11-2.44,4.62-6.18,3.86-9.2,2.61-5.73,2.63-10.86,4.99-16.01,7.36-.23-.54-.87-2.13-.9-2.12-4.06,1.55-8.07,3.22-11.64,5.76-2.88.31-5.96.07-8.59,1.05-4.14,1.55-6.59-.9-6.47-3.72.23-5.69-3.88-9.64-4.56-14.93-.71-5.51-2.88-10.83-4.32-16.26-9.6-36.01-19.15-72.03-28.79-108.03-3.65-13.64-7.41-27.24-11.25-40.83-2.26-7.99-.5-11.47,7.42-13.62,15.58-4.22,31.14-8.5,46.78-12.48,2.81-.71,5.96-.1,8.95-.1-.19-.21-.39-.42-.58-.62Z"/>
  <path d="M746.81,210.98c1.26-10.84,2.34-20.2,3.43-29.55,2.61-22.32,5.56-44.61,7.72-66.98,1.37-14.23,1.54-12.96,15.53-16.91,10.57-2.98,21.23-5.67,31.85-8.47,9.98-2.63,11.36-1.72,13.46,8.46.66,3.22,1.54,6.41,2.39,9.59,12.57,46.57,25.16,93.14,37.73,139.71,2.33,8.64,4.74,17.26,6.84,25.95,1.92,7.92,1.23,8.76-6.5,10.97-4.45,1.27-8.85,2.71-13.46,4.14-1.06-7.81-7.07-3.81-10.51-5.87l-.61,1.61c2.98.83,5.97,1.66,9.02,2.51-2.67,3.46-23.45,9.71-26.34,7.57-1.9-1.4-3.28-4.11-3.93-6.49-7.82-28.57-15.45-57.19-23.15-85.79-.72-2.68-1.58-5.32-2.37-7.98-.43,0-.87,0-1.3,0-.46,3.07-1.02,6.13-1.35,9.21-2.06,19.14-4.11,38.29-6.08,57.44-1.43,13.85-2.8,27.71-4.08,41.58-.48,5.22-3.28,7.74-8.21,9.16-5.46,1.58-9.16-.73-12.05-4.57-6.2-8.24-12.05-16.74-18.02-25.14-10.5-14.79-21.03-29.56-31.47-44.39-4.37-6.2-8.55-12.52-12.82-18.79-.42.19-.85.39-1.27.58,2.38,8.42,4.81,16.83,7.14,25.27,1.69,6.13,3.25,12.3,4.84,18.46,4.44,17.19,8.97,34.36,13.23,51.59,1.78,7.21-.36,9.68-10.09,12.46-7.81,2.23-15.65,4.39-23.53,6.36-2.62.65-5.35.7-6.45-2.84-1.6-5.13-3.6-10.15-5.05-15.32-3.13-11.14-6.03-22.35-9.01-33.53-4.23-15.87-8.35-31.77-12.7-47.61-3.91-14.22-8.29-28.3-12.08-42.55-4.01-15.06-7.67-30.23-11.31-45.39-1.48-6.15.53-8.93,6.3-10.15,6.58-1.38,13.21-2.52,19.46-5.31,2.72-1.22,6.15-2.92,8.16.3,1.81-1.49,3.3-3.51,5.22-4.11,4.37-1.36,8.92-2.37,13.47-2.8,1.71-.16,4.17,1.22,5.32,2.67,5.5,6.89,10.69,14.02,15.93,21.11,3.05,4.13,5.95,8.36,8.97,12.51,11.69,16.1,23.4,32.19,35.11,48.28.46.64,1.03,1.2,2.63,3.05Z"/>
  <path d="M242.1,441.34c-1.27,1.61-2.42,3.08-3.58,4.55-.36-.2-.72-.4-1.07-.59.71-1.59,1.41-3.18,2.14-4.82-.66-.22-1.22-.42-1.23-.4-2.7,6.94-7.09,3.79-11.29,1.93-16.38-7.27-28.43-19.42-38.15-34.09-10.32-15.56-16.25-32.93-20.62-50.93-2.69-11.07-3.93-22.28-3.87-33.68.15-26.65,8.74-49.71,28.8-67.84,1.49-1.35,4.22-1.33,6.38-1.94,5.1-1.45,10.2-2.9,15.3-4.35-.22-.74-.43-1.47-.65-2.21-4.39,1.23-8.79,2.47-13.18,3.7,7.4-5.84,15.66-10.11,24.76-11.71,9.42-1.66,19.08-2.57,28.64-2.6,5.75-.02,11.71,1.72,17.2,3.68,6.21,2.22,12.36,5.04,17.87,8.62,5.39,3.49,10.22,8,14.81,12.54,12.94,12.8,20.46,28.91,26.99,45.54,6.59,16.8,10.13,34.21,10.56,52.29.36,15.15-2.13,29.73-8.52,43.44-5.87,12.59-14.73,23.11-26.39,30.51-7.77,4.93-16.63,8.24-25.23,11.7-4.13,1.66-8.79,2.06-13.24,2.87-.62.11-1.37-.83-2.13-1.04-1.08-.29-2.55-.89-3.27-.44-3.67,2.33-15.42,3.28-18.47.78-1.29-1.06-1.59-3.32-2.56-5.52ZM270.65,317.2c-5.18-13.18-9.03-25.82-18.85-35.4-8.81-8.61-22.84-5.89-27.53,5.5-3.62,8.8-3.02,17.97-1.35,27.01.26,1.43,3.53,3.23,5.45,3.27,9.24.17,18.49-.23,27.73-.37,4.55-.07,9.11-.01,14.55-.01ZM278.22,362.01c-1.33.67-2.44,1.71-3.56,1.72-11,.1-22,.02-33,0-2.1,0-4.21,0-7.28,0,2.82,6.8,4.81,12.25,7.3,17.45,2,4.18,4.28,8.3,7.02,12.02,4.38,5.97,9.36,11.31,17.76,11.14.73-.02,1.49,1.31,1.87,1.65,7.63-4.61,14.45-10.21,14.56-19.8.1-8.24,3.77-17.51-4.67-24.18ZM202.6,343.17c0,1.79-.01,3.29,0,4.78.03,2.69-.17,5.96,3.56,5.94,3.68-.01,3.64-3.38,3.63-5.99-.02-5.47-.41-10.94-.46-16.41-.02-2.96-.44-5.36-4.01-5.68-3.45-.31-5.82.92-6.58,4.54-.69,3.3-1.43,6.59-2.39,11-1.17-4.81-1.64-8.68-3.14-12.09-.71-1.61-3.45-3.31-5.17-3.21-1.71.1-4.6,2.31-4.71,3.75-.51,6.93-.42,13.93-.1,20.89.05,1.16,2.33,2.22,3.57,3.32,1.1-1.26,2.74-2.36,3.18-3.82.55-1.84.13-3.98.13-5.99,1.64,3.74,3.73,8.88,6.16,9.05,6.13.41,3.83-6.47,6.31-10.08ZM232.95,346.66c-.68-.07-1.37-.15-2.05-.22,0-5.39.32-10.81-.19-16.14-.16-1.65-2.57-3.09-3.95-4.62-1.28,1.48-3.52,2.87-3.65,4.44-.46,5.44-.4,10.95-.11,16.42.25,4.55,3.46,7.26,8.37,7.55,4.32.25,8.7-.91,9.31-5.56.86-6.52.55-13.23.27-19.84-.04-1.09-2.79-3.15-3.67-2.87-1.47.47-3.28,2.38-3.46,3.87-.49,4.1-.15,8.28-.25,12.43-.04,1.52-.4,3.03-.62,4.55ZM261.79,333.14c.44-.42.88-.84,1.31-1.27,1.26,1.13,2.38,2.86,3.83,3.22,1.17.29,3.97-1.16,3.93-1.7-.14-2.11-.55-4.72-1.91-6.11-2.94-3-9.98-2.04-12.71,1.21-2.96,3.52-2.38,8.72,1.45,12.03,1.25,1.08,2.85,1.77,4.07,2.87.99.9,1.67,2.15,2.4,3.29.04.06-.97.9-1,.87-.86-.82-1.54-1.85-2.48-2.54-1.22-.9-3.07-2.46-3.87-2.08-1.34.63-3.08,2.82-2.82,3.91.54,2.19,1.86,4.72,3.66,5.95,4.18,2.85,10.97,1.2,13.4-2.66,2.62-4.17,1.3-8.99-3.42-12.52-1.96-1.47-3.91-2.97-5.86-4.45ZM315.63,348.26c-2.97-6.69-2.63-13.37-.44-15.29,2.05,1.52,3.81,3.14,5.87,4.1.43.2,2.8-2.02,2.86-3.19.09-1.97-.41-5.21-1.63-5.75-3.13-1.39-6.95-2.52-10.17-1.94-2.25.4-5.32,3.59-5.64,5.87-.74,5.33-.36,10.89.19,16.29.43,4.2,4.17,5.93,7.68,5.55,3.11-.33,6.53-1.95,8.79-4.09,1.02-.96.44-5.65-.92-6.71-2.87-2.24-4.69.25-5.58,3.15-.14.46-.43.87-1.02,2.01ZM284.97,339.85s-.04,0-.06,0c0,2.98-.51,6.09.17,8.91.47,1.97,2.57,3.54,3.94,5.29,1.3-1.65,3.6-3.22,3.72-4.95.45-6.26.45-12.6,0-18.86-.12-1.64-2.52-3.11-3.87-4.65-1.3,1.61-3.36,3.06-3.73,4.87-.62,3.02-.17,6.26-.17,9.41Z"/>
  <path d="M601.83,260.54c6.34,6.51,12.49,12.83,18.65,19.16,14.16,14.57,28.31,29.14,42.46,43.71,1.28,1.31,2.63,2.58,3.73,4.03,2.37,3.12,2.77,6.36-.09,9.44-2.18,2.35-7.88,2.62-9.46,1.39-4.18,1.52-7.6,3.05-11.17,3.99-5.18,1.37-10.48,2.26-15.71,3.45-5.66,1.29-11.24,2.96-16.95,3.88-1.69.27-4.25-.93-5.46-2.29-11.9-13.44-23.63-27.03-35.35-40.63-4.78-5.54-9.38-11.24-14.17-16.77-.94-1.09-2.42-1.72-4.86-3.39.52,3.39.64,5.32,1.13,7.15,5.24,19.77,10.68,39.49,15.65,59.32.7,2.78.07,7.02-1.71,8.99-1.84,2.03-5.84,2.12-8.9,2.93-9.46,2.73-18.91,5.47-28.62,8.28-.6-1.51-1.15-2.88-1.56-3.91-2.08,1.75-3.93,3.49-5.96,5-3.96,2.93-7.89,1.57-9.16-3.24-4.69-17.85-9.14-35.77-13.98-53.59-9.41-34.65-19.03-69.24-28.55-103.86-2.07-7.51-4.16-15.01-6.1-22.56-1.22-4.73-.34-5.85,4.23-8.45,2.28-1.3,3.8-4.18,6.15-5.09,21.9-8.55,44.06-16.27,67.44-19.84,12.45-1.9,24.87-2.01,37.13,1.12,24.9,6.37,38.13,26.71,41.04,49.89,2.46,19.55-4.33,35.85-18.02,49.59-.46.46-.81,1.03-1.79,2.3ZM544.49,260.82c14.64.57,23.88-11.45,23.36-23.61-.18-4.14-1.21-8.34-2.48-12.31-1.9-5.96-3.78-12.05-6.68-17.55-6.36-12.03-15.65-15.85-29.6-9.73.67,2.83,1.29,5.73,2.06,8.59,3.42,12.66,6.88,25.31,10.36,37.96,1.24,4.53,3.81,9.04.28,14.08.84-.48,1.68-.96,2.71-1.54v4.12ZM549.22,159.02c-.02.39-.05.78-.07,1.17,3.26,1.17,6.53,2.35,10.66,3.84-.2-1.87-.23-4.77-.55-4.8-3.32-.33-6.69-.21-10.05-.21ZM620.03,345.07c6.11-3.75,6.94-4.47,6.98-6.02h-5.6c-.44,1.9-.83,3.62-1.39,6.02Z"/>
  <path d="M6.06,351.22c-.42-.19-1.53-.7-2.51-1.15,1.26-3.81,2.06-7.53,3.72-10.82,1.34-2.65,3.74-4.76,4.93-6.22.26-3.13-.22-6.01.81-8.17,7.36-15.44,18.97-26.82,34.11-34.72,3.21-1.68,5.76-5.68,10.16-1.31,2.73-8.52,10.57-7.68,16.42-9.04,15.01-3.47,30.32-5.06,45.4.29,11.23,3.99,20.46,10.64,26.39,21.15,5.04,8.92,4.88,18.31-1.39,26.22-5.99,7.56-14.31,10.9-24.62,9.83-7.69-.8-12.56-4.74-17.48-9.87-3.26-3.39-7.56-5.76-11.13-8.89-1.36-1.2-1.97-3.26-2.69-4.52-.92.49-2.19,1.77-3.44,1.76-12.97-.17-21.1,6.94-22.42,19.74-2.31,22.33,1.77,43.85,9.43,64.58,4.21,11.4,10.29,22.16,16.1,32.9,1.9,3.51,5.65,6,8.49,9.02,1.03,1.09,1.85,2.38,2.63,3.4,2.09.35,4.26.91,6.44,1.02,3.75.18,7.7.83,11.21-.08,5.56-1.44,7.12-4.68,6.81-11.25,1.21,0,2.41,0,2.37,0-3.28-10.77-6.61-21.67-9.98-32.73-5.98,1.4-11.68,2.9-17.46,4.02-3.86.75-5.97-1.9-6.89-5.1-2.19-7.68-4.17-15.42-6.01-23.19-.87-3.69.74-6.59,4.45-7.53,13.63-3.46,27.36-6.54,40.95-10.15,6.11-1.62,11.98-4.18,18.79-6.61-.53,1.79-.8,2.72-1.23,4.19,1.25-.63,3.01-1.16,2.98-1.55-.29-3.99,2.91-3.63,4.65-3.02,2.24.79,5.26,2.54,5.8,4.48,4.9,17.52,9.32,35.17,13.89,52.78,1.88,7.23,3.5,14.55,5.74,21.67,3.23,10.26-.74,18.91-7.23,25.64-24.11,25.01-54.73,33.93-88.56,32.98-21.24-.59-38.02-10.85-51.56-26.78-11.03-12.97-18.7-27.8-23.78-43.99-2.49-7.94-5.35-15.83-7.02-23.96-1.3-6.36-1.34-13.05-1.34-19.59,0-6.39.6-12.8,1.29-19.16.21-1.93,1.59-3.72,2.76-6.29Z"/>
  <path d="M403.31,319.03c1.28,1.87,2.9,3.43,3.54,5.32,2.66,7.8,5.25,15.63,7.38,23.58.75,2.79-.71,6.26,3.2,8.01.19-.9.33-1.59.48-2.3,1.53.81,3.01,2.22,4.54,2.28,3.79.15,7.67.07,11.38-.62,13.22-2.46,17.09-9.61,13.57-23.51-6-23.7-12.48-47.27-18.78-70.89-4.31-16.14-8.78-32.24-12.89-48.42-.6-2.35-4.08-6.62,3.24-7.07-6.22-1.33-8.01-4.41-5.89-9.8,1.9.76,3.59,1.43,5.27,2.1.19-.29.39-.58.58-.87-.9-.97-1.8-1.95-3.42-3.71,4.41-.67,8.19-1.24,12.69-1.92.38-.26,1.54-1.62,2.89-1.85,6.69-1.17,13.01-3.68,19.59-5.2,4.98-1.15,7.43.31,8.75,5.34,9.43,35.84,18.94,71.65,28.19,107.54,3.48,13.52,6.96,27.09,9.31,40.83,3.52,20.58-5.19,38.65-24.17,50.56-2.76,1.73-5.38,3.68-7.39,5.06-5.02.07-7.58-5.68-13.1-3.59,3.21,2.1,5.9,3.87,9.06,5.95-11.32,4.63-22.4,9.01-34.37,10.32-7.69.84-15.66,2.49-23.13,1.33-13.55-2.11-26.89-5.14-36.68-16.92-4.76-5.73-7.6-11.81-9.67-18.48-3.49-11.24-6.54-22.62-9.69-33.97-3.42-12.28-6.8-24.57-10.09-36.88-6.22-23.22-12.13-46.54-18.66-69.67-3.52-12.49-1.29-11.76,10.61-15.09,2.05-.57,4.11-1.2,6.21-1.51,1.71-.25,3.93-2.88,5.24.74.04.11,2.34-.3,3.31-.91,1.42-.9,2.41-2.77,3.89-3.22,6.37-1.91,12.83-3.51,19.29-5.09,5.63-1.38,7.92-.06,9.34,5.8,1.58,6.55,2.46,13.27,4.19,19.77,2.18,8.18,5.14,16.16,7.34,24.34,2.19,8.14,3.69,16.45,5.8,24.61.98,3.78,2.89,7.32,4.01,11.07,1.94,6.48,3.79,13.01,5.25,19.61.54,2.44-.12,5.14-.21,7.35Z"/>
  <path d="M1098.66,22.25c-.79-.47-1.59-.94-2.86-1.7,5.84-8.46,13.39-14.52,23.4-16.22,2.71-.46,4.87-1.12,7.37-1.99,3.18-1.11,7.2-.37,10.75.2,13.84,2.22,22.46,10.76,27.33,23.47.99,2.58,1.52,5.38,1.89,8.14.14,1.06-.74,2.26-1.27,3.73,3.02,3.31,2.75,6.24-1.14,8.47.74.96,2.32,2.19,2.11,2.88-3.52,11.54-7.43,22.96-10.85,34.53-1.25,4.21-2.02,8.73-2,13.11.06,13.81,3.47,27.11,6.58,40.47.36,1.54-1.27,4.42-2.78,5.31-2.13,1.25-4.81,1.05-5.87-2.35-2.35-7.52-4.8-15.01-7.34-22.47-2.57-7.57-7.15-13.99-12.01-20.21-5.2-6.66-12.22-11.35-18.27-17.08-14.01-13.27-23.79-28.74-21.39-49.22.43-3.67.25-8.43,6.34-9.07Z"/>
  <path d="M1181.74,153.47c0,.39,0-.33,0-1.05,5.55.07,15.31,12.48,15.83,22.05.68,12.48-3.5,25.82-18,30.13-2.24-2.9-4.52-5.84-6.87-8.88-3.64,5.72-2.74,7.5,3.74,8.17.13.46.26.93.39,1.39-2.89.81-5.74,2.08-8.68,2.37-14.82,1.45-28.14-8.86-30.3-23.97-1.93-13.52,5.21-28.41,20.9-31.52,4.81-.95,9.77-1.68,14.65-1.6,2.82.04,5.6,1.9,8.34,2.92Z"/>
  <path class="cls-1" d="M270.65,317.2c-5.45,0-10-.06-14.55.01-9.25.14-18.49.54-27.73.37-1.91-.04-5.18-1.84-5.45-3.27-1.66-9.04-2.27-18.21,1.35-27.01,4.69-11.4,18.72-14.11,27.53-5.5,9.81,9.59,13.66,22.22,18.85,35.4Z"/>
  <path class="cls-1" d="M278.22,362.01c8.45,6.67,4.77,15.94,4.67,24.18-.11,9.59-6.94,15.19-14.56,19.8-.37-.35-1.13-1.67-1.87-1.65-8.4.17-13.39-5.17-17.76-11.14-2.73-3.72-5.02-7.85-7.02-12.02-2.49-5.2-4.49-10.65-7.3-17.45,3.07,0,5.17,0,7.28,0,11,.02,22,.1,33,0,1.12,0,2.23-1.05,3.56-1.72Z"/>
  <path class="cls-1" d="M202.6,343.17c-2.48,3.61-.18,10.49-6.31,10.08-2.43-.16-4.53-5.31-6.16-9.05,0,2.01.42,4.15-.13,5.99-.44,1.46-2.07,2.56-3.18,3.82-1.25-1.11-3.52-2.16-3.57-3.32-.32-6.96-.41-13.95.1-20.89.11-1.45,3-3.66,4.71-3.75,1.72-.1,4.47,1.6,5.17,3.21,1.5,3.41,1.97,7.28,3.14,12.09.96-4.41,1.7-7.7,2.39-11,.75-3.62,3.12-4.85,6.58-4.54,3.57.32,3.99,2.72,4.01,5.68.04,5.47.44,10.94.46,16.41.01,2.61.05,5.98-3.63,5.99-3.73.01-3.53-3.25-3.56-5.94-.02-1.5,0-2.99,0-4.78Z"/>
  <path class="cls-1" d="M232.95,346.66c.22-1.52.58-3.03.62-4.55.1-4.15-.24-8.34.25-12.43.18-1.48,1.99-3.39,3.46-3.87.88-.28,3.62,1.78,3.67,2.87.27,6.61.58,13.32-.27,19.84-.61,4.64-4.99,5.81-9.31,5.56-4.91-.29-8.12-3-8.37-7.55-.3-5.46-.35-10.98.11-16.42.13-1.57,2.38-2.96,3.65-4.44,1.38,1.53,3.79,2.97,3.95,4.62.51,5.34.19,10.76.19,16.14.68.07,1.37.15,2.05.22Z"/>
  <path class="cls-1" d="M261.79,333.14c1.95,1.49,3.89,2.99,5.86,4.45,4.72,3.53,6.04,8.34,3.42,12.52-2.43,3.87-9.22,5.51-13.4,2.66-1.8-1.23-3.12-3.76-3.66-5.95-.27-1.08,1.48-3.27,2.82-3.91.8-.38,2.65,1.18,3.87,2.08.94.69,1.62,1.72,2.48,2.54.03.03,1.04-.81,1-.87-.74-1.14-1.42-2.39-2.4-3.29-1.22-1.11-2.82-1.79-4.07-2.87-3.83-3.31-4.41-8.5-1.45-12.03,2.73-3.25,9.77-4.21,12.71-1.21,1.36,1.39,1.77,4.01,1.91,6.11.04.53-2.76,1.99-3.93,1.7-1.45-.36-2.57-2.08-3.83-3.22-.44.42-.88.84-1.31,1.27Z"/>
  <path class="cls-1" d="M315.63,348.26c.59-1.14.88-1.55,1.02-2.01.89-2.9,2.71-5.39,5.58-3.15,1.36,1.06,1.95,5.75.92,6.71-2.27,2.13-5.68,3.76-8.79,4.09-3.51.37-7.25-1.35-7.68-5.55-.55-5.4-.93-10.96-.19-16.29.31-2.28,3.39-5.47,5.64-5.87,3.22-.57,7.04.56,10.17,1.94,1.21.54,1.72,3.78,1.63,5.75-.06,1.17-2.43,3.39-2.86,3.19-2.07-.96-3.83-2.58-5.87-4.1-2.19,1.92-2.53,8.6.44,15.29Z"/>
  <path class="cls-1" d="M284.97,339.85c0-3.15-.45-6.39.17-9.41.37-1.8,2.43-3.26,3.73-4.87,1.35,1.55,3.75,3.02,3.87,4.65.46,6.26.46,12.6,0,18.86-.13,1.73-2.42,3.31-3.72,4.95-1.37-1.75-3.47-3.32-3.94-5.29-.68-2.82-.17-5.92-.17-8.91.02,0,.04,0,.06,0Z"/>
  <path class="cls-1" d="M544.49,260.82v-4.12c-1.03.59-1.87,1.06-2.71,1.54,3.53-5.04.96-9.55-.28-14.08-3.47-12.65-6.93-25.3-10.36-37.96-.77-2.86-1.38-5.76-2.06-8.59,13.95-6.12,23.25-2.3,29.6,9.73,2.91,5.5,4.78,11.58,6.68,17.55,1.27,3.97,2.3,8.17,2.48,12.31.52,12.16-8.72,24.18-23.36,23.61Z"/>
  <path d="M549.22,159.02c3.36,0,6.73-.13,10.05.21.32.03.35,2.93.55,4.8-4.14-1.49-7.4-2.66-10.66-3.84.02-.39.05-.78.07-1.17Z"/>
  <path d="M620.03,345.07c.55-2.4.95-4.12,1.39-6.02h5.6c-.04,1.56-.87,2.28-6.98,6.02Z"/>
</svg>